<svg width="1200" height="800" viewBox="0 0 1200 800" fill="none" xmlns="http://www.w3.org/2000/svg">
  <rect width="1200" height="800" rx="28" fill="#EFF4FB"/>
  <circle cx="206" cy="188" r="138" fill="#DCE7F3"/>
  <circle cx="1032" cy="584" r="167" fill="#D7F0E6"/>
  <rect x="183" y="173" width="834" height="446" rx="22" fill="#FFFFFF"/>
  <path d="M318 500C383 387 432 312 537 312C641 312 658 468 779 468C866 468 917 407 956 352" stroke="#1E7A66" stroke-width="18" stroke-linecap="round"/>
  <circle cx="318" cy="500" r="27" fill="#F0B429"/>
  <circle cx="537" cy="312" r="27" fill="#F0B429"/>
  <circle cx="779" cy="468" r="27" fill="#F0B429"/>
  <circle cx="956" cy="352" r="27" fill="#F0B429"/>
  <rect x="280" y="235" width="223" height="20" rx="10" fill="#D7E4F1"/>
  <rect x="280" y="272" width="175" height="15" rx="7.5" fill="#E3EAF1"/>
  <text x="600" y="682" text-anchor="middle" font-family="Arial, sans-serif" font-size="34" font-weight="700" fill="#3D546F">Image Placeholder</text>
  <text x="600" y="724" text-anchor="middle" font-family="Arial, sans-serif" font-size="22" fill="#597088">Replace with your own route or map image</text>
</svg>
