<svg width="1200" height="800" viewBox="0 0 1200 800" fill="none" xmlns="http://www.w3.org/2000/svg">
  <rect width="1200" height="800" rx="28" fill="#EFF5F9"/>
  <circle cx="982" cy="184" r="133" fill="#E2EDF5"/>
  <circle cx="198" cy="626" r="148" fill="#F6EBCF"/>
  <rect x="212" y="175" width="776" height="455" rx="20" fill="#FFFFFF"/>
  <path d="M600 262L761 327V450C761 541 693 605 600 631C507 605 439 541 439 450V327L600 262Z" fill="#EAF5F0"/>
  <path d="M600 319L706 362V447C706 510 661 560 600 580C539 560 494 510 494 447V362L600 319Z" fill="#CFE8DB"/>
  <path d="M551 447L588 484L648 418" stroke="#1F7A65" stroke-width="22" stroke-linecap="round" stroke-linejoin="round"/>
  <text x="600" y="687" text-anchor="middle" font-family="Arial, sans-serif" font-size="34" font-weight="700" fill="#3D546F">Image Placeholder</text>
  <text x="600" y="729" text-anchor="middle" font-family="Arial, sans-serif" font-size="22" fill="#597088">Replace with your own trust or safety image</text>
</svg>
